<svg width="16" height="16" viewBox="0 0 16 16" fill="none" xmlns="http://www.w3.org/2000/svg">
<path d="M14.9805 0H1.02181C0.457272 0 0 0.457272 0 1.02068V14.9793C0 15.5427 0.457272 16 1.02181 16H14.9793C15.5427 16 16 15.5427 16 14.9793V1.02068C16.0011 0.456143 15.5439 0 14.9805 0ZM13.2722 9.74949C13.5646 10.0476 14.1991 10.5477 14.084 11.0569C13.9778 11.5244 13.2801 11.3539 12.6026 11.381C11.8292 11.4137 11.3708 11.4307 10.9057 11.0569C10.6866 10.8797 10.5579 10.6697 10.3479 10.4348C10.1571 10.2226 9.91659 9.84207 9.58916 9.85675C9.00092 9.88611 9.18496 10.7058 8.97608 11.2647C5.7063 11.7796 4.3932 9.75965 3.23478 7.79959C2.67363 6.85005 1.86296 4.81095 1.86296 4.81095L4.17529 4.80305C4.17529 4.80305 4.91708 6.15228 5.11354 6.50004C5.28064 6.79585 5.46468 7.0307 5.65436 7.2949C5.81356 7.51394 6.06535 7.94298 6.34084 7.90798C6.78908 7.8504 6.87037 6.11164 6.59262 5.52904C6.48197 5.29306 6.21664 5.21064 5.94228 5.13048C6.03486 4.54562 8.53574 4.42368 8.93995 4.87757C9.52706 5.53694 8.53348 7.3728 9.33738 7.90798C10.4664 7.31635 11.4307 4.83918 11.4307 4.83918L14.1382 4.85611C14.1382 4.85611 13.7148 6.19519 13.271 6.78908C13.0125 7.13683 12.1544 7.91137 12.1883 8.48606C12.2154 8.94108 12.9131 9.38367 13.2722 9.74949Z" fill="#CCCCCC"/>
</svg>
