<svg width="16" height="14" viewBox="0 0 16 14" fill="none" xmlns="http://www.w3.org/2000/svg">
<path d="M14.5712 13.2857C14.9309 13.2857 15.2425 13.1669 15.5075 12.9324L10.9744 8.3992C10.8656 8.47708 10.7602 8.55281 10.6607 8.62482C10.3214 8.87476 10.0461 9.06979 9.83467 9.20955C9.62328 9.34962 9.34203 9.4924 8.99095 9.63817C8.63963 9.78411 8.31234 9.85685 8.00872 9.85685H7.99983H7.99094C7.68729 9.85685 7.35999 9.78414 7.00871 9.63817C6.65742 9.4924 6.37616 9.34962 6.16498 9.20955C5.95359 9.06979 5.67841 8.87479 5.339 8.62482C5.24442 8.55548 5.13952 8.4794 5.02612 8.39798L0.492188 12.9324C0.757085 13.1669 1.06893 13.2857 1.42855 13.2857H14.5712Z" fill="#CCCCCC"/>
<path d="M0.901882 5.5448C0.562678 5.31865 0.261876 5.05965 0 4.76791V11.6649L3.99542 7.66944C3.19611 7.11141 2.16624 6.40401 0.901882 5.5448Z" fill="#CCCCCC"/>
<path d="M15.1068 5.5448C13.8907 6.36793 12.8571 7.07655 12.0059 7.67104L15.9997 11.665V4.76791C15.7436 5.05378 15.446 5.31261 15.1068 5.5448Z" fill="#CCCCCC"/>
<path d="M14.5731 0.714325H1.43043C0.971926 0.714325 0.619417 0.869156 0.372472 1.1785C0.125324 1.48798 0.00195312 1.87503 0.00195312 2.33921C0.00195312 2.71414 0.165673 3.12039 0.492967 3.55807C0.820261 3.99557 1.16853 4.33922 1.5376 4.58919C1.73992 4.73214 2.35007 5.15631 3.36803 5.86156C3.91755 6.24236 4.39543 6.57428 4.80609 6.8607C5.15613 7.10459 5.45801 7.31581 5.70725 7.49109C5.73586 7.51116 5.78086 7.54335 5.84058 7.58605C5.90493 7.63227 5.98635 7.69092 6.0868 7.76345C6.28024 7.90335 6.44094 8.01644 6.56893 8.10283C6.69674 8.18925 6.8516 8.28578 7.03328 8.39297C7.2148 8.50002 7.38602 8.58051 7.54671 8.63405C7.70744 8.68756 7.85623 8.7144 7.99311 8.7144H8.002H8.01089C8.14774 8.7144 8.29655 8.68756 8.45731 8.63405C8.61798 8.58051 8.78905 8.50019 8.97072 8.39297C9.15222 8.28578 9.30688 8.18905 9.4351 8.10283C9.56309 8.01644 9.72379 7.90338 9.91725 7.76345C10.0175 7.69092 10.0989 7.63224 10.1633 7.5862C10.223 7.54332 10.268 7.51134 10.2968 7.49109C10.4909 7.35598 10.7935 7.14564 11.2003 6.86317C11.9405 6.34886 13.0307 5.59187 14.4753 4.58919C14.9098 4.28572 15.2728 3.9195 15.5646 3.49105C15.8558 3.06261 16.0018 2.61319 16.0018 2.14295C16.0018 1.75006 15.8602 1.41388 15.5777 1.13388C15.2949 0.854225 14.96 0.714325 14.5731 0.714325Z" fill="#CCCCCC"/>
</svg>
