<svg width="166" height="48" viewBox="0 0 166 48" fill="none" xmlns="http://www.w3.org/2000/svg">
<path fill-rule="evenodd" clip-rule="evenodd" d="M14.0093 36.4527C14.0013 36.2494 13.0983 16.0841 4.51748 10.5786C4.2096 10.3801 4.06797 10.0014 4.17017 9.64731C4.272 9.29364 4.59412 9.04956 4.95981 9.04956C5.21025 9.04956 11.1526 9.10972 15.4633 14.3239C15.6674 14.5719 15.7114 14.9159 15.5755 15.2066C15.4407 15.4982 15.1497 15.6845 14.8307 15.6845H14.3723C15.3461 18.3745 17.6855 25.2444 18.0681 30.1567C18.9959 29.7413 20.3116 29.2164 21.4122 29.0259V14.1265C21.0201 14.2113 20.5985 14.3606 20.3484 14.6119C20.0689 14.8966 19.6247 14.9364 19.2984 14.708C18.9718 14.4793 18.8538 14.0478 19.0181 13.6826L22.2041 6.6156V-0.050293H3.64208C1.63893 -0.050293 0 1.60033 0 3.61777V44.382C0 46.3994 1.63893 48.0501 3.64208 48.0501H22.2041V43.8829C21.7634 43.8667 21.4122 43.5022 21.4122 43.0545V34.1676C20.0402 34.5618 17.4783 35.4546 15.3243 37.0825C15.0812 37.268 14.7542 37.3003 14.4785 37.1681C14.2019 37.0362 14.0216 36.7604 14.0093 36.4527ZM33.2813 37.1681C33.0045 37.2996 32.6775 37.268 32.4358 37.0825C30.2753 35.45 27.7188 34.5595 26.3479 34.1668V43.0545C26.3479 43.5022 25.9964 43.8667 25.556 43.8829V48.0501H44.118C46.1212 48.0501 47.7598 46.3994 47.7598 44.382V3.61777C47.7598 1.60033 46.1212 -0.050293 44.118 -0.050293H25.556V6.61597L28.742 13.6822C28.9063 14.0478 28.7884 14.4793 28.4614 14.7077C28.1369 14.9364 27.6943 14.8966 27.4114 14.6119C27.1616 14.3606 26.74 14.2113 26.3476 14.1265V29.0259C27.4485 29.2164 28.7646 29.7413 29.6924 30.1567C30.0747 25.2444 32.414 18.3745 33.3878 15.6845H32.9287C32.61 15.6845 32.3191 15.4982 32.1842 15.2066C32.0483 14.9159 32.0927 14.5719 32.2964 14.3239C36.6071 9.10972 42.5495 9.04956 42.8003 9.04956C43.1661 9.04956 43.4881 9.29364 43.59 9.64731C43.6918 10.0014 43.5505 10.3801 43.2423 10.5786C34.6618 16.0841 33.7588 36.2494 33.7508 36.4527C33.7385 36.7601 33.5582 37.0362 33.2813 37.1681Z" fill="url(#paint0_linear)"/>
<path d="M65.9991 22.2255V24.9918C65.9991 26.3752 65.3948 26.8731 64.4333 26.8731C63.4717 26.8731 62.8674 26.3752 62.8674 24.9918V14.5338C62.8674 13.1504 63.4717 12.6251 64.4333 12.6251C65.3948 12.6251 65.9991 13.1504 65.9991 14.5338V16.609H68.8562V14.7273C68.8562 11.6289 67.3179 9.85828 64.351 9.85828C61.384 9.85828 59.8457 11.6289 59.8457 14.7273V24.7982C59.8457 27.8971 61.384 29.6677 64.351 29.6677C67.3179 29.6677 68.8562 27.8971 68.8562 24.7982V22.2255H65.9991ZM78.0382 10.0797H73.6158L70.5388 29.4463H73.3132L73.8351 25.9329H77.5439L78.0658 29.4463H81.1152L78.0382 10.0797ZM75.6759 13.5101L77.1318 23.3042H74.22L75.6759 13.5101ZM92.5499 29.4463C92.2478 28.727 92.2203 28.0351 92.2203 27.0945V24.1068C92.2203 22.087 91.7255 20.6207 90.2148 19.9843C91.5609 19.348 92.1927 18.0475 92.1927 16.0555V14.5338C92.1927 11.5459 90.8467 10.0797 87.715 10.0797H83.155V29.4463H86.1768V21.5614H87.2203C88.5939 21.5614 89.1985 22.2255 89.1985 24.0238V27.0671C89.1985 28.6441 89.3085 28.9484 89.4731 29.4463H92.5499ZM87.6327 12.846C88.7037 12.846 89.171 13.455 89.171 14.838V16.7471C89.171 18.2967 88.484 18.7946 87.3578 18.7946H86.1768V12.846H87.6327ZM99.287 10.0797H94.8369V29.4463H97.8586V22.17H99.287C102.309 22.17 103.792 20.4822 103.792 17.3834V14.8658C103.792 11.7673 102.309 10.0797 99.287 10.0797ZM99.287 12.846C100.249 12.846 100.77 13.2888 100.77 14.6721V17.5774C100.77 18.9608 100.249 19.4032 99.287 19.4032H97.8586V12.846H99.287ZM108.854 12.846H114.073V10.0797H105.832V29.4463H114.073V26.6795H108.854V21.0079H113.002V18.2412H108.854V12.846ZM115.701 12.846H118.86V29.4463H121.882V12.846H125.041V10.0797H115.701V12.846ZM133.894 29.4463H136.998L132.795 18.7116L136.998 10.0797H133.976L130.02 18.518V10.0797H126.999V29.4463H130.02V23.4977L130.954 21.7272L133.894 29.4463ZM139.01 29.4463H142.032V10.0797H139.01V29.4463ZM151.324 29.4463H154.428V10.0797H151.736V21.672L148.632 10.0797H144.841V29.4463H147.561V15.4192L151.324 29.4463ZM161.77 21.4229H163.143V24.9918C163.143 26.3752 162.539 26.8731 161.577 26.8731C160.616 26.8731 160.011 26.3752 160.011 24.9918V14.5338C160.011 13.1504 160.616 12.6251 161.577 12.6251C162.539 12.6251 163.143 13.1504 163.143 14.5338V16.609H166V14.7273C166 11.6289 164.462 9.85828 161.495 9.85828C158.528 9.85828 156.99 11.6289 156.99 14.7273V24.7982C156.99 27.8971 158.528 29.6677 161.495 29.6677C164.462 29.6677 166 27.8971 166 24.7982V18.6561H161.77V21.4229Z" fill="white"/>
<path d="M62.7603 38.7196C62.7051 38.6011 62.6668 38.4007 62.6427 38.1203C62.3264 38.5888 61.9197 38.8241 61.4268 38.8241C60.9302 38.8241 60.5427 38.683 60.2642 38.4026C59.9859 38.1221 59.8457 37.7265 59.8457 37.2163C59.8457 36.6551 60.0341 36.2093 60.4128 35.8799C60.792 35.5506 61.3108 35.3816 61.9699 35.3747H62.6274V34.7858C62.6274 34.4545 62.5546 34.2196 62.4095 34.0785C62.264 33.9389 62.0426 33.8695 61.7467 33.8695C61.4751 33.8695 61.2553 33.9512 61.0876 34.1132C60.918 34.2752 60.8333 34.4807 60.8333 34.7303H59.9372C59.9372 34.4475 60.0203 34.1776 60.1846 33.9215C60.3508 33.6639 60.5737 33.4618 60.854 33.3152C61.1343 33.1691 61.4475 33.0958 61.7918 33.0958C62.352 33.0958 62.7794 33.2369 63.0719 33.5173C63.3642 33.7981 63.5127 34.2073 63.5196 34.7437V37.5298C63.5231 37.9564 63.5802 38.3243 63.6927 38.6378V38.7196H62.7603ZM61.5632 38.0192C61.783 38.0192 61.9925 37.9583 62.1912 37.8345C62.3918 37.7107 62.5374 37.5557 62.6274 37.3709V36.0434H62.1203C61.6949 36.0504 61.3595 36.1479 61.1117 36.3346C60.8662 36.5209 60.7418 36.7823 60.7418 37.1183C60.7418 37.4338 60.8057 37.664 60.9302 37.8048C61.0546 37.9479 61.2656 38.0192 61.5632 38.0192ZM64.9867 38.7196V33.2003H66.827C67.455 33.2003 67.9345 33.3291 68.2665 33.5872C68.5969 33.8467 68.7631 34.2212 68.7631 34.7145C68.7631 34.9705 68.6973 35.1985 68.5655 35.4025C68.4323 35.608 68.2404 35.7631 67.9877 35.8729C68.2684 35.9478 68.4932 36.0993 68.6643 36.3257C68.8336 36.5541 68.9202 36.8295 68.9202 37.1534C68.9202 37.664 68.7613 38.0524 68.4465 38.3188C68.1298 38.5854 67.6837 38.7196 67.1058 38.7196H64.9867ZM65.8792 36.2945V37.9564H67.1162C67.7196 37.9564 68.0225 37.6775 68.0225 37.1202C68.0225 36.5695 67.7162 36.2945 67.1058 36.2945H65.8792ZM65.8792 35.542H66.817C67.5155 35.542 67.8652 35.2821 67.8652 34.765C67.8652 34.2439 67.5366 33.9774 66.8772 33.9635H65.8792V35.542ZM73.5387 33.9635H72.0426V38.7196H71.1519V33.9635H69.6761V33.2003H73.5387V33.9635ZM74.0802 35.704C74.0802 34.9007 74.274 34.2667 74.6615 33.7981C75.049 33.3291 75.5595 33.0958 76.1944 33.0958C76.8289 33.0958 77.3413 33.3241 77.7269 33.7803C78.1145 34.2351 78.3132 34.8571 78.3236 35.6431V36.2247C78.3236 37.0246 78.1297 37.6586 77.746 38.1253C77.36 38.5904 76.8466 38.8241 76.2047 38.8241C75.5698 38.8241 75.0594 38.5977 74.6773 38.1445C74.2931 37.6917 74.0944 37.0801 74.0802 36.3065V35.704ZM74.9782 36.2228C74.9782 36.7909 75.0889 37.2387 75.3102 37.563C75.5315 37.8884 75.8291 38.0504 76.2047 38.0504C76.9951 38.0504 77.4018 37.4758 77.4259 36.3257V35.7022C77.4259 35.1375 77.3153 34.6897 77.092 34.3624C76.8687 34.0329 76.5697 33.8695 76.1944 33.8695C75.8256 33.8695 75.5315 34.0329 75.3102 34.3624C75.0889 34.6897 74.9782 35.136 74.9782 35.6967V36.2228ZM82.1693 37.4704L83.6394 33.2003H84.7553V38.7196H83.8627V34.9146L82.4788 38.7196H81.8665L80.4515 34.8224V38.7196H79.5604V33.2003H80.7161L82.1693 37.4704ZM85.9957 35.704C85.9957 34.9007 86.1894 34.2667 86.577 33.7981C86.9641 33.3291 87.4745 33.0958 88.1095 33.0958C88.7444 33.0958 89.2563 33.3241 89.642 33.7803C90.0295 34.2351 90.2282 34.8571 90.2385 35.6431V36.2247C90.2385 37.0246 90.0452 37.6586 89.6611 38.1253C89.2755 38.5904 88.7616 38.8241 88.1198 38.8241C87.4849 38.8241 86.9745 38.5977 86.5922 38.1445C86.2082 37.6917 86.0095 37.0801 85.9957 36.3065V35.704ZM86.8932 36.2228C86.8932 36.7909 87.004 37.2387 87.2253 37.563C87.4469 37.8884 87.7445 38.0504 88.1198 38.0504C88.9101 38.0504 89.3168 37.4758 89.341 36.3257V35.7022C89.341 35.1375 89.2303 34.6897 89.007 34.3624C88.7841 34.0329 88.4847 33.8695 88.1095 33.8695C87.741 33.8695 87.4469 34.0329 87.2253 34.3624C87.004 34.6897 86.8932 35.136 86.8932 35.6967V36.2228ZM93.4805 33.5139C94.0584 33.5139 94.5167 33.7437 94.8595 34.2057C95.1999 34.6673 95.3696 35.2841 95.3696 36.0557V36.1326C95.3696 36.9494 95.1807 37.6027 94.8021 38.0906C94.4248 38.58 93.9232 38.8241 93.3024 38.8241C92.6814 38.8241 92.1816 38.5769 91.8028 38.0836C91.4237 37.5908 91.2353 36.927 91.2353 36.094V35.6289C91.2353 34.4896 91.4115 33.5767 91.7661 32.8902C92.1211 32.2057 92.6415 31.7822 93.3285 31.6218C93.7229 31.5296 93.991 31.4216 94.1311 31.2963C94.2713 31.1709 94.3421 31.0035 94.3421 30.796H95.067L95.0617 30.9947C95.0199 31.6673 94.7001 32.0942 94.0982 32.2751L93.4805 32.4478C93.0344 32.5713 92.6917 32.7876 92.4531 33.0958C92.216 33.4058 92.0602 33.8101 91.9893 34.3102C92.4029 33.7788 92.8992 33.5139 93.4805 33.5139ZM93.2971 34.2875C92.9391 34.2875 92.6572 34.4406 92.4477 34.7476C92.2402 35.0542 92.1364 35.5158 92.1364 36.1341C92.1364 36.7334 92.2402 37.204 92.4462 37.5472C92.6519 37.8904 92.9375 38.0612 93.3024 38.0612C93.6674 38.0612 93.9546 37.8884 94.1637 37.5452C94.3731 37.2004 94.4788 36.6898 94.4788 36.0157C94.4788 35.4842 94.3731 35.0627 94.1621 34.7526C93.9511 34.4425 93.662 34.2875 93.2971 34.2875ZM99.2996 33.2003H100.191V38.7196H99.2996V34.6951L97.3122 38.7196H96.4161V33.2003H97.3122V37.2301L99.2996 33.2003ZM105.489 33.2003V38.7196H104.591V33.9843H103.147L103.06 35.8556C103.014 36.8919 102.875 37.6255 102.645 38.0593C102.415 38.4932 102.047 38.7127 101.54 38.7196H101.243V37.8834L101.469 37.8622C101.72 37.8291 101.896 37.6602 102 37.3555C102.102 37.0523 102.171 36.453 102.204 35.5594L102.291 33.2003H105.489ZM107.885 35.1028H109.015C109.539 35.1063 109.956 35.2682 110.267 35.5872C110.578 35.9076 110.734 36.3431 110.734 36.8939C110.734 37.4441 110.577 37.885 110.262 38.2179C109.949 38.5488 109.532 38.7161 109.015 38.7196H106.994V33.2003H107.885V35.1028ZM107.885 35.8765V37.9459H109.001C109.264 37.9459 109.47 37.8553 109.616 37.676C109.764 37.4966 109.836 37.2475 109.836 36.9286C109.836 36.6169 109.764 36.3643 109.618 36.1707C109.473 35.9775 109.274 35.8799 109.02 35.8765H107.885ZM115.724 38.7196H114.834V36.3678H112.857V38.7196H111.955V33.2003H112.857V35.5941H114.834V33.2003H115.724V38.7196ZM118.129 35.1028H119.26C119.783 35.1063 120.2 35.2682 120.511 35.5872C120.823 35.9076 120.978 36.3431 120.978 36.8939C120.978 37.4441 120.821 37.885 120.506 38.2179C120.193 38.5488 119.776 38.7161 119.26 38.7196H117.238V33.2003H118.129V35.1028ZM122.649 38.7196H121.753V33.2003H122.649V38.7196ZM118.129 35.8765V37.9459H119.245C119.508 37.9459 119.714 37.8553 119.861 37.676C120.008 37.4966 120.08 37.2475 120.08 36.9286C120.08 36.6169 120.008 36.3643 119.862 36.1707C119.717 35.9775 119.518 35.8799 119.264 35.8765H118.129ZM126.169 38.8241C125.486 38.8241 124.962 38.6185 124.597 38.209C124.234 37.7978 124.047 37.197 124.04 36.4044V35.7353C124.04 34.9111 124.218 34.2667 124.575 33.7981C124.931 33.3291 125.429 33.0958 126.067 33.0958C126.709 33.0958 127.188 33.3013 127.507 33.7144C127.825 34.1255 127.986 34.7684 127.993 35.6392V36.2316H124.933V36.3589C124.933 36.9494 125.043 37.3798 125.265 37.6482C125.486 37.9167 125.804 38.0504 126.219 38.0504C126.482 38.0504 126.716 38 126.917 37.9008C127.117 37.7998 127.306 37.6428 127.482 37.4253L127.947 37.9964C127.558 38.5488 126.967 38.8241 126.169 38.8241ZM126.067 33.8695C125.695 33.8695 125.42 33.9982 125.242 34.2563C125.062 34.5139 124.96 34.9146 124.938 35.4584H127.097V35.3346C127.072 34.8085 126.979 34.4341 126.815 34.2073C126.652 33.9824 126.401 33.8695 126.067 33.8695ZM132.937 36.3678H132.43V38.7196H131.534V33.2003H132.43V35.5313H132.876L134.37 33.2003H135.44L133.611 35.824L135.573 38.7196H134.447L132.937 36.3678ZM136.133 35.704C136.133 34.9007 136.327 34.2667 136.714 33.7981C137.102 33.3291 137.612 33.0958 138.247 33.0958C138.882 33.0958 139.394 33.3241 139.78 33.7803C140.167 34.2351 140.366 34.8571 140.376 35.6431V36.2247C140.376 37.0246 140.183 37.6586 139.799 38.1253C139.413 38.5904 138.899 38.8241 138.257 38.8241C137.623 38.8241 137.112 38.5977 136.73 38.1445C136.346 37.6917 136.147 37.0801 136.133 36.3065V35.704ZM137.031 36.2228C137.031 36.7909 137.142 37.2387 137.363 37.563C137.584 37.8884 137.882 38.0504 138.257 38.0504C139.048 38.0504 139.454 37.4758 139.479 36.3257V35.7022C139.479 35.1375 139.368 34.6897 139.145 34.3624C138.922 34.0329 138.623 33.8695 138.247 33.8695C137.878 33.8695 137.584 34.0329 137.363 34.3624C137.142 34.6897 137.031 35.136 137.031 35.6967V36.2228ZM141.61 38.7196V33.2003H143.45C144.078 33.2003 144.558 33.3291 144.89 33.5872C145.22 33.8467 145.386 34.2212 145.386 34.7145C145.386 34.9705 145.32 35.1985 145.189 35.4025C145.055 35.608 144.864 35.7631 144.611 35.8729C144.892 35.9478 145.116 36.0993 145.288 36.3257C145.457 36.5541 145.543 36.8295 145.543 37.1534C145.543 37.664 145.384 38.0524 145.07 38.3188C144.753 38.5854 144.306 38.7196 143.729 38.7196H141.61ZM142.502 36.2945V37.9564H143.739C144.343 37.9564 144.646 37.6775 144.646 37.1202C144.646 36.5695 144.339 36.2945 143.729 36.2945H142.502ZM142.502 35.542H143.44C144.139 35.542 144.488 35.2821 144.488 34.765C144.488 34.2439 144.16 33.9774 143.5 33.9635H142.502V35.542ZM150.719 36.2247C150.719 37.0994 150.563 37.7527 150.25 38.1812C149.939 38.6097 149.496 38.8241 148.925 38.8241C148.375 38.8241 147.951 38.615 147.654 38.197V40.8416H146.761V33.2003H147.572L147.617 33.8101C147.918 33.3345 148.349 33.0958 148.91 33.0958C149.512 33.0958 149.962 33.3067 150.259 33.7283C150.556 34.1513 150.709 34.7823 150.719 35.6239V36.2247ZM149.828 35.711C149.828 35.0924 149.733 34.6362 149.545 34.3415C149.354 34.0472 149.05 33.9007 148.631 33.9007C148.202 33.9007 147.877 34.1166 147.654 34.5486V37.4183C147.873 37.8398 148.202 38.0504 148.642 38.0504C149.046 38.0504 149.345 37.9043 149.536 37.6096C149.728 37.3154 149.825 36.8656 149.828 36.2613V35.711ZM154.841 33.2003H155.732V38.7196H154.841V34.6951L152.854 38.7196H151.957V33.2003H152.854V37.2301L154.841 33.2003ZM158.652 36.3678H158.145V38.7196H157.249V33.2003H158.145V35.5313H158.591L160.086 33.2003H161.155L159.327 35.824L161.288 38.7196H160.162L158.652 36.3678ZM165.109 33.2003H166V38.7196H165.109V34.6951L163.122 38.7196H162.226V33.2003H163.122V37.2301L165.109 33.2003Z" fill="#808080"/>
<defs>
<linearGradient id="paint0_linear" x1="0.000367618" y1="23.9891" x2="47.7529" y2="23.9891" gradientUnits="userSpaceOnUse">
<stop stop-color="#0063C8"/>
<stop offset="1" stop-color="#E00000"/>
</linearGradient>
</defs>
</svg>
