<svg xmlns="http://www.w3.org/2000/svg" xmlns:xlink="http://www.w3.org/1999/xlink"><defs>
<linearGradient id="paint0_linear" x1="12.212" y1="1.50391" x2="12.212" y2="26" gradientUnits="userSpaceOnUse">
<stop stop-color="#0063C8"/>
<stop offset="1" stop-color="#D90306"/>
</linearGradient>
<linearGradient id="paint1_linear" x1="17.3583" y1="4.71509" x2="17.3583" y2="12.5501" gradientUnits="userSpaceOnUse">
<stop stop-color="#0063C8"/>
<stop offset="1" stop-color="#D90306"/>
</linearGradient>
<linearGradient id="paint2_linear" x1="19.8162" y1="0" x2="19.8162" y2="12.3252" gradientUnits="userSpaceOnUse">
<stop stop-color="#0063C8"/>
<stop offset="1" stop-color="#D90306"/>
</linearGradient>
</defs><symbol id="icon-arrow-top" viewBox="0 0 14 8">
<path fill-rule="evenodd" clip-rule="evenodd" d="M6.30684 0.296675L0.287383 6.3164C-0.0957031 6.69949 -0.0957031 7.32019 0.287383 7.703C0.670196 8.08582 1.2909 8.08582 1.67371 7.703L7 2.37644L12.3263 7.703C12.7094 8.08554 13.3301 8.08554 13.7129 7.703C14.0957 7.32019 14.0957 6.69921 13.7129 6.3164L7.69316 0.296401C7.50176 0.105268 7.25102 0.00956535 7 0.00956535C6.74926 0.00956535 6.49824 0.105268 6.30684 0.296675Z"/>
</symbol><symbol id="icon-f-ig" viewBox="0 0 16 16">
<path d="M8 4.75C6.19063 4.75 4.71875 6.22188 4.71875 8.03125C4.71875 9.84062 6.19063 11.3125 8 11.3125C9.80937 11.3125 11.2812 9.84062 11.2812 8.03125C11.2812 6.22188 9.80937 4.75 8 4.75ZM8 4.75C6.19063 4.75 4.71875 6.22188 4.71875 8.03125C4.71875 9.84062 6.19063 11.3125 8 11.3125C9.80937 11.3125 11.2812 9.84062 11.2812 8.03125C11.2812 6.22188 9.80937 4.75 8 4.75ZM13.6562 0H2.34375C1.05 0 0 1.05 0 2.34375V13.6562C0 14.95 1.05 16 2.34375 16H13.6562C14.95 16 16 14.95 16 13.6562V2.34375C16 1.05 14.95 0 13.6562 0ZM8 12.25C5.67503 12.25 3.78125 10.3562 3.78125 8.03125C3.78125 5.70622 5.67503 3.8125 8 3.8125C10.325 3.8125 12.2188 5.70622 12.2188 8.03125C12.2188 10.3562 10.325 12.25 8 12.25ZM13.1562 3.8125C12.6406 3.8125 12.2188 3.39062 12.2188 2.875C12.2188 2.35938 12.6406 1.9375 13.1562 1.9375C13.6719 1.9375 14.0938 2.35938 14.0938 2.875C14.0938 3.39062 13.6719 3.8125 13.1562 3.8125ZM8 4.75C6.19063 4.75 4.71875 6.22188 4.71875 8.03125C4.71875 9.84062 6.19063 11.3125 8 11.3125C9.80937 11.3125 11.2812 9.84062 11.2812 8.03125C11.2812 6.22188 9.80937 4.75 8 4.75ZM8 4.75C6.19063 4.75 4.71875 6.22188 4.71875 8.03125C4.71875 9.84062 6.19063 11.3125 8 11.3125C9.80937 11.3125 11.2812 9.84062 11.2812 8.03125C11.2812 6.22188 9.80937 4.75 8 4.75ZM8 4.75C6.19063 4.75 4.71875 6.22188 4.71875 8.03125C4.71875 9.84062 6.19063 11.3125 8 11.3125C9.80937 11.3125 11.2812 9.84062 11.2812 8.03125C11.2812 6.22188 9.80937 4.75 8 4.75Z" fill="#CCCCCC"/>
</symbol><symbol id="icon-f-mail" viewBox="0 0 16 14">
<path d="M14.5712 13.2857C14.9309 13.2857 15.2425 13.1669 15.5075 12.9324L10.9744 8.3992C10.8656 8.47708 10.7602 8.55281 10.6607 8.62482C10.3214 8.87476 10.0461 9.06979 9.83467 9.20955C9.62328 9.34962 9.34203 9.4924 8.99095 9.63817C8.63963 9.78411 8.31234 9.85685 8.00872 9.85685H7.99983H7.99094C7.68729 9.85685 7.35999 9.78414 7.00871 9.63817C6.65742 9.4924 6.37616 9.34962 6.16498 9.20955C5.95359 9.06979 5.67841 8.87479 5.339 8.62482C5.24442 8.55548 5.13952 8.4794 5.02612 8.39798L0.492188 12.9324C0.757085 13.1669 1.06893 13.2857 1.42855 13.2857H14.5712Z" fill="#CCCCCC"/>
<path d="M0.901882 5.5448C0.562678 5.31865 0.261876 5.05965 0 4.76791V11.6649L3.99542 7.66944C3.19611 7.11141 2.16624 6.40401 0.901882 5.5448Z" fill="#CCCCCC"/>
<path d="M15.1068 5.5448C13.8907 6.36793 12.8571 7.07655 12.0059 7.67104L15.9997 11.665V4.76791C15.7436 5.05378 15.446 5.31261 15.1068 5.5448Z" fill="#CCCCCC"/>
<path d="M14.5731 0.714325H1.43043C0.971926 0.714325 0.619417 0.869156 0.372472 1.1785C0.125324 1.48798 0.00195312 1.87503 0.00195312 2.33921C0.00195312 2.71414 0.165673 3.12039 0.492967 3.55807C0.820261 3.99557 1.16853 4.33922 1.5376 4.58919C1.73992 4.73214 2.35007 5.15631 3.36803 5.86156C3.91755 6.24236 4.39543 6.57428 4.80609 6.8607C5.15613 7.10459 5.45801 7.31581 5.70725 7.49109C5.73586 7.51116 5.78086 7.54335 5.84058 7.58605C5.90493 7.63227 5.98635 7.69092 6.0868 7.76345C6.28024 7.90335 6.44094 8.01644 6.56893 8.10283C6.69674 8.18925 6.8516 8.28578 7.03328 8.39297C7.2148 8.50002 7.38602 8.58051 7.54671 8.63405C7.70744 8.68756 7.85623 8.7144 7.99311 8.7144H8.002H8.01089C8.14774 8.7144 8.29655 8.68756 8.45731 8.63405C8.61798 8.58051 8.78905 8.50019 8.97072 8.39297C9.15222 8.28578 9.30688 8.18905 9.4351 8.10283C9.56309 8.01644 9.72379 7.90338 9.91725 7.76345C10.0175 7.69092 10.0989 7.63224 10.1633 7.5862C10.223 7.54332 10.268 7.51134 10.2968 7.49109C10.4909 7.35598 10.7935 7.14564 11.2003 6.86317C11.9405 6.34886 13.0307 5.59187 14.4753 4.58919C14.9098 4.28572 15.2728 3.9195 15.5646 3.49105C15.8558 3.06261 16.0018 2.61319 16.0018 2.14295C16.0018 1.75006 15.8602 1.41388 15.5777 1.13388C15.2949 0.854225 14.96 0.714325 14.5731 0.714325Z" fill="#CCCCCC"/>
</symbol><symbol id="icon-f-phone" viewBox="0 0 16 16">
<path d="M15.6413 12.6447L13.1703 10.1734C12.6782 9.68326 11.8631 9.69815 11.3538 10.2076L10.1089 11.4522C10.0303 11.4089 9.94889 11.3636 9.8633 11.3156C9.07718 10.88 8.00123 10.283 6.86902 9.14995C5.73346 8.01452 5.13589 6.93692 4.69897 6.15029C4.65287 6.06695 4.6087 5.9866 4.56507 5.9103L5.40057 5.07605L5.81133 4.66478C6.32142 4.15455 6.33548 3.33974 5.84447 2.84813L3.37352 0.376627C2.8825 -0.114299 2.0671 -0.099406 1.557 0.410826L0.860607 1.11122L0.879637 1.13011C0.646125 1.42807 0.450996 1.77172 0.305787 2.1423C0.171932 2.49505 0.088594 2.83167 0.0504875 3.16897C-0.275785 5.87385 0.960263 8.3459 4.31474 11.7004C8.95164 16.337 12.6884 15.9867 12.8496 15.9696C13.2007 15.9277 13.5372 15.8438 13.8791 15.711C14.2465 15.5675 14.5899 15.3726 14.8877 15.1396L14.9029 15.1531L15.6084 14.4623C16.1174 13.9522 16.1321 13.1371 15.6413 12.6447Z" fill="#CCCCCC"/>
</symbol><symbol id="icon-f-vk" viewBox="0 0 16 16">
<path d="M14.9805 0H1.02181C0.457272 0 0 0.457272 0 1.02068V14.9793C0 15.5427 0.457272 16 1.02181 16H14.9793C15.5427 16 16 15.5427 16 14.9793V1.02068C16.0011 0.456143 15.5439 0 14.9805 0ZM13.2722 9.74949C13.5646 10.0476 14.1991 10.5477 14.084 11.0569C13.9778 11.5244 13.2801 11.3539 12.6026 11.381C11.8292 11.4137 11.3708 11.4307 10.9057 11.0569C10.6866 10.8797 10.5579 10.6697 10.3479 10.4348C10.1571 10.2226 9.91659 9.84207 9.58916 9.85675C9.00092 9.88611 9.18496 10.7058 8.97608 11.2647C5.7063 11.7796 4.3932 9.75965 3.23478 7.79959C2.67363 6.85005 1.86296 4.81095 1.86296 4.81095L4.17529 4.80305C4.17529 4.80305 4.91708 6.15228 5.11354 6.50004C5.28064 6.79585 5.46468 7.0307 5.65436 7.2949C5.81356 7.51394 6.06535 7.94298 6.34084 7.90798C6.78908 7.8504 6.87037 6.11164 6.59262 5.52904C6.48197 5.29306 6.21664 5.21064 5.94228 5.13048C6.03486 4.54562 8.53574 4.42368 8.93995 4.87757C9.52706 5.53694 8.53348 7.3728 9.33738 7.90798C10.4664 7.31635 11.4307 4.83918 11.4307 4.83918L14.1382 4.85611C14.1382 4.85611 13.7148 6.19519 13.271 6.78908C13.0125 7.13683 12.1544 7.91137 12.1883 8.48606C12.2154 8.94108 12.9131 9.38367 13.2722 9.74949Z" fill="#CCCCCC"/>
</symbol><symbol id="icon-menu-close">
  <path style="transform: translateX(16px)" fill-rule="evenodd" d="M14.1 12l9.5-9.4A1.5 1.5 0 1 0 21.4.4L12 10 2.6.4A1.5 1.5 0 1 0 .4 2.6L10 12 .4 21.4a1.5 1.5 0 1 0 2.2 2.2L12 14l9.4 9.5a1.5 1.5 0 0 0 2.2 0c.5-.6.5-1.6 0-2.2L14 12z"/>
</symbol><symbol id="icon-menu-open">
  <path fill-rule="evenodd" d="M1.3 2.5h37.5a1.3 1.3 0 0 0 0-2.5H1.3a1.3 1.3 0 0 0 0 2.5zm37.5 15h-25a1.3 1.3 0 0 0 0 2.5h25a1.3 1.3 0 0 0 0-2.5zm0-8.8H1.3a1.3 1.3 0 0 0 0 2.6h37.5a1.3 1.3 0 0 0 0-2.6z" clip-rule="evenodd"/>
</symbol><symbol id="icon-phone" viewBox="0 0 26 26">
<path d="M20.5478 16.1061C20.0156 15.5518 19.3735 15.2555 18.6931 15.2555C18.0181 15.2555 17.3706 15.5464 16.8164 16.1006L15.0823 17.8292C14.9396 17.7523 14.797 17.681 14.6598 17.6097C14.4622 17.5109 14.2757 17.4176 14.1165 17.3188C12.4922 16.2872 11.0161 14.9427 9.60032 13.2032C8.91439 12.3362 8.45344 11.6064 8.1187 10.8655C8.56868 10.454 8.98572 10.026 9.3918 9.6144C9.54545 9.46075 9.6991 9.30161 9.85275 9.14796C11.0051 7.99559 11.0051 6.503 9.85275 5.35063L8.35466 3.85255C8.18455 3.68244 8.00895 3.50684 7.84433 3.33124C7.51508 2.99101 7.16937 2.63981 6.81268 2.31057C6.2804 1.78377 5.64385 1.50391 4.97438 1.50391C4.3049 1.50391 3.65738 1.78377 3.10863 2.31057C3.10315 2.31605 3.10315 2.31605 3.09766 2.32154L1.23192 4.20375C0.52952 4.90614 0.128934 5.76219 0.0411348 6.75542C-0.0905646 8.35777 0.381358 9.85036 0.743532 10.8271C1.6325 13.2252 2.96047 15.4476 4.94145 17.8292C7.34497 20.6991 10.2369 22.9654 13.5403 24.5623C14.8025 25.1604 16.4871 25.8683 18.3693 25.989C18.4845 25.9945 18.6053 26 18.715 26C19.9826 26 21.0472 25.5445 21.8813 24.6391C21.8868 24.6281 21.8978 24.6226 21.9032 24.6117C22.1886 24.266 22.5178 23.9532 22.8636 23.6184C23.0995 23.3935 23.341 23.1575 23.5769 22.9106C24.1202 22.3453 24.4055 21.6868 24.4055 21.0119C24.4055 20.3314 24.1147 19.6784 23.5605 19.1297L20.5478 16.1061ZM22.5124 21.8844C22.5069 21.8844 22.5069 21.8899 22.5124 21.8844C22.2983 22.1149 22.0788 22.3234 21.8429 22.5539C21.4862 22.8941 21.124 23.2508 20.7838 23.6514C20.2296 24.244 19.5766 24.5239 18.7205 24.5239C18.6382 24.5239 18.5504 24.5239 18.4681 24.5184C16.8383 24.4141 15.3238 23.7776 14.1879 23.2343C11.0819 21.7307 8.35466 19.5961 6.08834 16.8908C4.21711 14.6354 2.96596 12.5502 2.13735 10.3113C1.62702 8.94493 1.44044 7.88035 1.52275 6.87615C1.57763 6.23411 1.82457 5.70183 2.28003 5.24637L4.15126 3.37514C4.42014 3.12271 4.70549 2.98553 4.98535 2.98553C5.33106 2.98553 5.61093 3.19405 5.78652 3.36965C5.79201 3.37514 5.7975 3.38062 5.80299 3.38611C6.13772 3.6989 6.456 4.02266 6.79073 4.36837C6.96084 4.54397 7.13644 4.71957 7.31204 4.90065L8.81012 6.39874C9.3918 6.98041 9.3918 7.51818 8.81012 8.09985C8.65099 8.25899 8.49734 8.41813 8.3382 8.57178C7.87725 9.0437 7.43826 9.4827 6.96084 9.91072C6.94987 9.9217 6.93889 9.92718 6.93341 9.93816C6.46148 10.4101 6.54928 10.871 6.64806 11.1838C6.65355 11.2003 6.65903 11.2167 6.66452 11.2332C7.05413 12.177 7.60288 13.066 8.43698 14.1251L8.44246 14.1306C9.95701 15.9963 11.5539 17.4505 13.3153 18.5645C13.5403 18.7071 13.7708 18.8224 13.9903 18.9321C14.1879 19.0309 14.3744 19.1242 14.5336 19.223C14.5555 19.2339 14.5775 19.2504 14.5994 19.2614C14.786 19.3547 14.9616 19.3986 15.1427 19.3986C15.5981 19.3986 15.8835 19.1132 15.9768 19.0199L17.8535 17.1432C18.0401 16.9566 18.3364 16.7317 18.6821 16.7317C19.0223 16.7317 19.3022 16.9457 19.4723 17.1322C19.4778 17.1377 19.4778 17.1377 19.4833 17.1432L22.5069 20.1668C23.0721 20.7265 23.0721 21.3027 22.5124 21.8844Z" fill="url(#paint0_linear)"/>
<path d="M14.0502 6.18467C15.4879 6.42612 16.794 7.10657 17.8366 8.14919C18.8792 9.19181 19.5542 10.4978 19.8011 11.9356C19.8615 12.2977 20.1742 12.5501 20.5309 12.5501C20.5748 12.5501 20.6132 12.5447 20.6571 12.5392C21.0632 12.4733 21.3321 12.0892 21.2663 11.6831C20.9699 9.9436 20.1468 8.35772 18.8902 7.10108C17.6335 5.84445 16.0477 5.02133 14.3081 4.72501C13.902 4.65916 13.5234 4.92804 13.4521 5.32863C13.3807 5.72921 13.6441 6.11883 14.0502 6.18467Z" fill="url(#paint1_linear)"/>
<path d="M25.9697 11.4691C25.4813 8.60468 24.1314 5.99813 22.0571 3.92387C19.9829 1.8496 17.3763 0.49968 14.5118 0.011294C14.1113 -0.0600432 13.7326 0.214331 13.6613 0.614917C13.5954 1.02099 13.8643 1.39963 14.2704 1.47096C16.8276 1.90447 19.1597 3.11721 21.0145 4.96649C22.8693 6.82125 24.0765 9.15343 24.51 11.7106C24.5704 12.0728 24.8832 12.3252 25.2399 12.3252C25.2838 12.3252 25.3222 12.3197 25.3661 12.3142C25.7667 12.2539 26.041 11.8697 25.9697 11.4691Z" fill="url(#paint2_linear)"/>

</symbol></svg>